<svg width="150" height="150" viewBox="0 0 150 150" fill="none" xmlns="http://www.w3.org/2000/svg">
<path d="M116.314 99.9976L90.514 51.2776C89.5539 49.3574 87.6338 48.1578 85.474 47.9176L66.3942 46.1179C66.2745 41.6781 64.9544 36.8777 62.5538 32.3183C59.9138 27.2783 56.1938 23.1985 52.2338 20.6783C47.5538 17.6783 42.8738 17.1988 39.0333 19.2386C35.1929 21.2784 33.0333 25.4788 32.7931 30.9984C32.6734 35.7979 33.9935 41.0782 36.6335 46.1182C39.154 50.7982 42.3933 54.5179 45.8738 57.0384L36.6335 73.8379C35.5537 75.7581 35.5537 78.0384 36.6335 79.9577L62.5535 128.678C64.2335 131.798 68.074 132.998 71.1935 131.318L113.674 108.638C116.794 106.958 117.994 103.117 116.314 99.9977L116.314 99.9976ZM43.474 42.3976C41.4341 38.6778 40.3542 34.598 40.474 31.238C40.5937 28.7176 41.3144 26.7982 42.5139 26.198C42.8738 25.9578 43.3534 25.8372 43.8339 25.8372C44.9137 25.8372 46.3543 26.3169 47.9137 27.277C50.7939 29.0766 53.5537 32.1972 55.5937 36.0367C57.2737 39.1565 58.2337 42.3967 58.4739 45.3967L56.794 45.277C54.2735 45.0368 51.754 46.3569 50.5537 48.637L49.7133 50.1973C47.5538 48.3976 45.2735 45.8782 43.474 42.3977V42.3976ZM89.314 107.198C89.5542 107.677 89.4337 108.277 88.954 108.518L84.7536 110.677C84.274 110.917 83.6738 110.797 83.4336 110.317L81.1534 106.117C76.7136 108.157 71.5531 106.596 68.9131 102.637C68.5532 102.158 68.7934 101.557 69.2731 101.317L73.4735 99.037C73.8334 98.7967 74.3139 98.9173 74.5533 99.2772C75.5134 100.478 77.1933 100.837 78.6331 100.118L82.3529 98.1974C84.5125 96.9971 85.7129 94.357 84.7527 92.0776C83.6729 89.4376 80.5522 88.3579 78.1525 89.6779L75.3927 91.1176C70.2331 93.8774 63.5124 92.5573 60.2729 87.638C56.7933 82.4785 58.233 75.638 63.0327 72.1585L60.9936 67.8376C60.7534 67.358 60.8739 66.7578 61.3535 66.5176L65.554 64.358C66.0336 64.1178 66.6338 64.2383 66.874 64.7179L69.1542 68.9184C73.594 66.8785 78.7544 68.4387 81.3944 72.3979C81.6347 72.8776 81.5141 73.4777 81.0345 73.718L76.8341 75.9982C76.4741 76.2384 75.9937 76.1179 75.7543 75.7579C74.7942 74.5576 73.1143 74.1977 71.6745 74.9175L67.9547 76.8377C65.7951 78.0381 64.5947 80.5575 65.5549 82.9575C66.6347 85.5975 69.7553 86.6773 72.1551 85.3573L75.2749 83.6773C81.1551 80.5576 88.4753 83.0772 91.1153 89.4371C93.1552 94.2367 91.235 99.7571 87.1553 102.877L89.314 107.198Z" fill="#058B8C"/>
</svg>
