<svg width="150" height="150" viewBox="0 0 150 150" fill="none" xmlns="http://www.w3.org/2000/svg">
<path d="M78.4608 99.9388V50.4152C78.4608 49.8452 77.9996 49.3848 77.4313 49.3848C63.2089 49.3848 51.6377 60.9537 51.6377 75.1784C51.6377 89.4007 63.2091 100.972 77.4313 100.972C78.0004 100.969 78.4608 100.507 78.4608 99.939V99.9388Z" fill="#058B8C"/>
<path d="M104.591 74.2331C104.107 62.0649 95.0541 51.7245 83.0656 49.6459C82.5868 49.5597 82.1139 49.8267 81.9339 50.2796C81.7531 50.7316 81.9139 51.2505 82.319 51.5201C88.9769 55.9532 93.3455 64.6442 93.7271 74.2001C94.1499 84.7545 89.6791 94.4861 82.3423 98.9908C81.9196 99.2511 81.7422 99.7709 81.918 100.233C82.072 100.643 82.4595 100.903 82.8831 100.903C82.9417 100.903 83.0019 100.898 83.0597 100.887C95.85 98.677 105.105 87.2185 104.589 74.2317L104.591 74.2331Z" fill="#058B8C"/>
<path d="M77.4429 43.4638C78.9572 43.4638 80.186 42.2317 80.186 40.7167V24.1757C80.186 22.6615 78.9572 21.4286 77.4429 21.4286C75.9287 21.4286 74.6958 22.6607 74.6958 24.1757V40.7175C74.6966 42.2317 75.9288 43.4638 77.4429 43.4638Z" fill="#058B8C"/>
<path d="M51.1395 52.6674C51.6577 53.1872 52.3465 53.4726 53.0823 53.4726C53.8181 53.4726 54.5078 53.1855 55.0243 52.6674C55.5424 52.1476 55.827 51.4587 55.827 50.7246C55.827 49.9913 55.5416 49.3016 55.0226 48.7818L43.5641 37.3267C42.5287 36.2896 40.719 36.2888 39.6793 37.3267C38.6104 38.3982 38.6104 40.1392 39.6818 41.2089L51.1395 52.6674Z" fill="#058B8C"/>
<path d="M77.4494 106.472C75.936 106.472 74.7046 107.704 74.7046 109.219V125.761C74.7046 127.276 75.9359 128.508 77.4494 128.508C78.9636 128.508 80.1948 127.276 80.1948 125.761V109.219C80.1948 107.704 78.9627 106.472 77.4494 106.472Z" fill="#058B8C"/>
<path d="M53.087 96.4631C52.3529 96.4631 51.6623 96.7511 51.145 97.2717L39.6799 108.726C38.6093 109.795 38.6093 111.536 39.6799 112.609C40.717 113.647 42.5284 113.647 43.5647 112.609L55.0281 101.155C55.5479 100.634 55.8333 99.9477 55.8333 99.2145C55.8333 98.4787 55.5479 97.789 55.0306 97.2717C54.5133 96.751 53.8227 96.4631 53.087 96.4631L53.087 96.4631Z" fill="#058B8C"/>
<path d="M45.8143 75.0902C45.8143 73.5768 44.5847 72.3431 43.0689 72.3431H25.2471C23.7329 72.3431 22.5 73.5752 22.5 75.0902C22.5 76.607 23.7321 77.8382 25.2471 77.8382H43.0697C44.5839 77.8382 45.8145 76.6069 45.8145 75.0902H45.8143Z" fill="#058B8C"/>
<path d="M111.058 43.421C107.678 42.5086 107.056 41.736 106.294 37.5122C106.231 37.1682 105.933 36.9171 105.583 36.9171C105.232 36.9171 104.932 37.1682 104.871 37.5122C104.102 41.7377 103.48 42.5111 100.1 43.421C99.7844 43.5063 99.5659 43.7943 99.5659 44.1207C99.5659 44.4472 99.7844 44.7351 100.099 44.8188C103.484 45.7354 104.109 46.5097 104.87 50.7301C104.932 51.0742 105.232 51.3253 105.584 51.3253C105.934 51.3253 106.233 51.0741 106.295 50.7293C107.053 46.5121 107.675 45.7388 111.06 44.8197C111.376 44.7343 111.594 44.4481 111.594 44.1199C111.594 43.7935 111.375 43.5064 111.058 43.421L111.058 43.421Z" fill="#058B8C"/>
<path d="M111.058 106.412C107.679 105.498 107.056 104.725 106.294 100.501C106.231 100.157 105.933 99.9059 105.583 99.9059C105.232 99.9059 104.932 100.157 104.871 100.501C104.102 104.725 103.48 105.498 100.1 106.412C99.7844 106.494 99.5659 106.783 99.5659 107.108C99.5659 107.435 99.7844 107.725 100.1 107.809C103.484 108.723 104.108 109.496 104.869 113.72C104.931 114.062 105.231 114.312 105.583 114.312C105.933 114.312 106.232 114.061 106.294 113.717C107.052 109.5 107.674 108.728 111.059 107.809C111.375 107.722 111.593 107.435 111.593 107.108C111.593 106.783 111.375 106.494 111.058 106.412L111.058 106.412Z" fill="#058B8C"/>
<path d="M126.836 74.0145C122.286 72.6577 121.401 71.5042 120.517 65.7829C120.462 65.4372 120.171 65.1778 119.821 65.1685C119.469 65.1552 119.165 65.4029 119.094 65.7444C117.915 71.4172 116.97 72.5229 112.357 73.6436C112.041 73.7207 111.815 74.0011 111.804 74.3292C111.796 74.6556 112.009 74.9486 112.321 75.0407C116.88 76.3975 117.765 77.551 118.647 83.2748C118.7 83.6214 118.995 83.88 119.345 83.8892H119.363C119.706 83.8892 120.002 83.6481 120.072 83.3108C121.238 77.6507 122.182 76.5415 126.802 75.4116C127.121 75.3338 127.346 75.0525 127.354 74.7261C127.361 74.398 127.149 74.1083 126.836 74.0146L126.836 74.0145Z" fill="#058B8C"/>
</svg>
