<svg width="150" height="150" viewBox="0 0 150 150" fill="none" xmlns="http://www.w3.org/2000/svg">
<path d="M89.5237 55.1192C89.5237 63.3113 82.5093 69.9527 73.8566 69.9527C65.204 69.9527 58.1904 63.3116 58.1904 55.1192C58.1904 46.9271 65.204 40.2857 73.8566 40.2857C82.5093 40.2857 89.5237 46.9268 89.5237 55.1192Z" fill="#058B8C"/>
<path d="M50.691 54.6178C50.691 60.7851 45.4678 65.7848 39.0242 65.7848C32.5806 65.7848 27.3574 60.7851 27.3574 54.6178C27.3574 48.4513 32.5806 43.4515 39.0242 43.4515C45.4678 43.4515 50.691 48.4513 50.691 54.6178Z" fill="#058B8C"/>
<path d="M122.691 54.6178C122.691 60.7851 117.468 65.7848 111.024 65.7848C104.581 65.7848 99.3574 60.7851 99.3574 54.6178C99.3574 48.4513 104.581 43.4515 111.024 43.4515C117.468 43.4515 122.691 48.4513 122.691 54.6178Z" fill="#058B8C"/>
<path d="M51.1902 79.6185C52.5236 78.6182 52.357 76.6185 51.0236 75.7847C47.5239 73.6185 43.3571 72.4515 39.0236 72.4515C26.8571 72.2849 16.6907 81.7856 15.8572 93.7855C15.8572 94.7858 16.5235 95.4521 17.3572 95.4521H37.3569C38.3572 95.4521 39.0235 94.9524 39.5231 94.1187C42.1899 88.4519 46.1902 83.4522 51.1899 79.6184L51.1902 79.6185Z" fill="#058B8C"/>
<path d="M111.023 72.2835C106.023 72.2835 101.357 73.9501 97.5229 76.617C96.1895 77.4507 96.1895 79.4505 97.3563 80.2832C101.856 83.9494 105.69 88.617 108.19 94.1164C108.523 94.9501 109.356 95.4499 110.356 95.4499H132.689C133.689 95.4499 134.355 94.6162 134.189 93.7833C133.356 81.7842 123.189 72.284 111.022 72.284L111.023 72.2835Z" fill="#058B8C"/>
<path d="M73.8553 78.6178C57.5218 78.6178 44.0224 91.284 42.8546 107.45C42.688 108.617 43.6883 109.616 45.0208 109.616H102.854C104.021 109.616 105.021 108.616 105.021 107.45C103.688 91.4505 90.1879 78.6178 73.8549 78.6178H73.8553Z" fill="#058B8C"/>
</svg>
